<?xml version="1.0" standalone="no"?>
<!DOCTYPE svg PUBLIC "-//W3C//DTD SVG 20010904//EN"
 "http://www.w3.org/TR/2001/REC-SVG-20010904/DTD/svg10.dtd">
<svg version="1.0" xmlns="http://www.w3.org/2000/svg"
 width="1024.000000pt" height="1024.000000pt" viewBox="0 0 1024.000000 1024.000000"
 preserveAspectRatio="xMidYMid meet">
<metadata>
Created by potrace 1.11, written by Peter Selinger 2001-2013
</metadata>
<g transform="translate(0.000000,1024.000000) scale(0.100000,-0.100000)"
fill="#000000" stroke="none">
<path d="M4997 10084 c-6 -6 -55 -9 -274 -17 -24 -1 -43 -4 -43 -7 0 -3 -21
-6 -48 -6 -26 -1 -68 -4 -93 -7 -109 -14 -167 -23 -179 -27 -3 -1 -9 -2 -14
-1 -5 1 -32 -3 -60 -9 -28 -5 -67 -12 -86 -14 -19 -3 -36 -6 -37 -7 -3 -2 -7
-3 -53 -12 -38 -8 -71 -15 -97 -21 -10 -2 -39 -9 -65 -15 -77 -18 -271 -71
-293 -80 -11 -5 -51 -19 -90 -31 -134 -43 -270 -94 -277 -105 -4 -5 -8 -7 -8
-3 0 9 -59 -15 -223 -91 -49 -23 -93 -41 -98 -41 -5 0 -9 -4 -9 -10 0 -5 -8
-10 -17 -11 -10 0 -49 -18 -88 -40 -38 -21 -81 -44 -95 -51 -14 -7 -27 -15
-30 -18 -3 -3 -30 -18 -60 -33 -129 -66 -551 -352 -636 -431 -7 -6 -29 -24
-50 -41 -20 -16 -48 -39 -60 -50 -13 -11 -49 -42 -81 -70 -77 -66 -378 -368
-427 -427 -21 -26 -52 -62 -68 -80 -17 -18 -46 -53 -67 -78 -20 -25 -39 -46
-43 -48 -5 -2 -8 -8 -8 -13 0 -5 -8 -17 -17 -27 -10 -10 -25 -29 -33 -42 -8
-13 -23 -32 -32 -42 -10 -10 -18 -21 -18 -25 0 -4 -8 -16 -19 -27 -28 -32
-171 -245 -171 -256 0 -6 -4 -10 -10 -10 -5 0 -10 -4 -10 -10 0 -5 -17 -36
-37 -67 -21 -32 -38 -60 -38 -63 0 -3 -20 -38 -43 -78 -63 -107 -172 -329
-235 -477 -52 -124 -68 -164 -72 -175 -1 -3 -7 -18 -13 -33 -7 -16 -12 -34
-12 -41 0 -7 -3 -15 -6 -19 -4 -4 -53 -137 -61 -167 -1 -3 -4 -12 -7 -20 -13
-41 -27 -89 -31 -106 -2 -10 -10 -40 -18 -66 -8 -27 -13 -48 -10 -48 3 0 0 -7
-7 -15 -7 -8 -10 -15 -7 -15 3 0 -3 -31 -14 -70 -10 -38 -18 -73 -18 -77 1 -5
0 -10 -1 -13 -6 -15 -40 -180 -45 -218 -3 -20 -7 -48 -9 -62 -12 -59 -26 -159
-31 -215 -3 -33 -8 -71 -10 -85 -26 -146 -26 -809 0 -995 3 -22 7 -60 9 -85 2
-25 7 -61 10 -80 3 -19 8 -51 11 -70 2 -19 7 -48 10 -65 3 -16 7 -46 9 -65 3
-19 5 -35 6 -35 3 0 10 -39 15 -75 2 -19 4 -35 5 -35 1 0 3 -10 6 -22 9 -48
11 -58 17 -73 3 -8 13 -46 21 -85 9 -38 18 -77 20 -85 3 -8 11 -40 20 -70 29
-109 52 -181 72 -235 4 -11 8 -24 10 -30 1 -5 9 -27 18 -47 9 -21 13 -38 10
-38 -4 0 -2 -6 3 -12 5 -7 18 -35 28 -63 20 -58 90 -226 111 -269 8 -16 14
-35 14 -42 0 -7 3 -14 8 -16 4 -1 18 -28 32 -58 14 -30 29 -58 35 -62 5 -4 7
-8 3 -8 -3 0 4 -19 17 -42 13 -24 35 -65 49 -93 14 -27 39 -72 56 -100 16 -27
40 -69 52 -92 12 -24 26 -43 30 -43 4 0 8 -5 8 -10 0 -6 18 -38 40 -71 22 -33
40 -63 40 -65 0 -3 6 -12 13 -19 29 -33 37 -45 37 -55 0 -5 4 -10 9 -10 5 0
13 -9 16 -20 3 -11 12 -26 18 -32 7 -7 41 -52 77 -100 35 -49 68 -88 72 -88 4
0 8 -6 8 -14 0 -8 3 -16 8 -18 4 -1 52 -57 107 -123 55 -66 169 -189 255 -275
130 -131 188 -185 303 -285 7 -6 37 -30 67 -55 30 -25 57 -47 60 -50 3 -3 52
-41 110 -84 58 -43 113 -84 122 -91 9 -7 27 -19 40 -26 13 -6 25 -15 28 -19 7
-9 264 -171 325 -205 28 -15 84 -45 125 -67 41 -22 81 -45 88 -50 6 -6 12 -7
12 -3 0 4 7 2 15 -5 17 -14 134 -71 220 -107 105 -44 129 -54 157 -69 14 -8
31 -14 36 -14 6 0 23 -5 39 -11 15 -6 28 -9 28 -7 1 2 13 -5 28 -15 15 -9 38
-18 52 -19 14 -1 25 -6 25 -10 0 -4 3 -7 8 -6 4 0 14 -2 22 -5 18 -7 243 -76
268 -82 9 -3 79 -20 154 -39 120 -31 263 -62 323 -71 11 -2 38 -6 60 -9 183
-30 312 -45 440 -51 39 -2 70 -5 70 -6 0 0 43 -2 95 -3 52 -1 101 -5 108 -9 6
-5 12 -4 12 1 0 7 37 9 48 2 7 -5 71 -3 85 3 9 3 19 2 22 -4 4 -5 11 -6 18 -2
6 4 61 8 122 9 60 1 137 5 170 9 33 3 87 8 120 11 69 7 79 8 160 18 70 9 100
14 100 16 0 1 9 3 20 4 32 4 109 16 141 22 16 3 38 7 49 9 11 2 38 8 60 14 22
5 51 12 65 15 47 9 140 33 245 62 11 3 27 7 35 8 9 1 20 4 25 8 6 3 44 15 85
27 41 12 84 26 95 30 47 20 181 65 188 63 4 -1 7 3 7 10 0 6 3 9 6 6 3 -4 24
2 47 12 108 47 123 53 132 55 6 2 74 33 150 71 77 37 147 70 155 73 31 12 175
95 182 105 4 6 8 8 8 4 0 -9 101 51 111 65 3 5 8 8 10 6 12 -7 466 306 509
351 3 3 28 23 55 45 28 21 59 48 71 59 11 12 40 37 64 56 57 46 382 370 441
440 125 148 180 215 270 337 55 72 99 136 99 142 0 5 4 11 8 13 8 3 78 105 92
133 3 6 13 22 23 38 34 53 44 72 45 81 0 5 4 12 9 15 26 17 257 464 253 487
-1 4 3 10 10 14 6 4 12 13 14 21 4 27 39 109 46 109 4 0 7 6 7 13 0 10 23 77
79 222 4 11 8 22 9 25 1 3 4 12 8 20 9 22 48 143 52 161 5 23 45 161 52 179 3
8 7 22 8 30 5 28 13 65 30 129 9 35 18 76 20 90 2 14 6 36 9 47 2 12 7 37 10
55 3 19 8 45 11 59 2 13 7 40 10 60 3 20 7 45 9 56 2 12 7 45 10 75 4 30 9 70
11 89 6 45 13 112 22 225 10 116 10 614 0 725 -14 158 -18 195 -27 254 -5 32
-9 61 -8 65 4 16 -75 436 -82 436 -1 0 -3 11 -5 25 -2 14 -8 43 -14 65 -7 22
-14 48 -16 59 -2 10 -12 44 -21 75 -10 31 -18 62 -20 68 -12 62 -126 378 -189
523 -53 122 -58 134 -60 140 -3 13 -147 293 -180 350 -21 36 -43 75 -49 87 -6
13 -14 23 -18 23 -5 0 -8 4 -8 9 0 14 -120 205 -131 209 -5 2 -9 9 -9 16 0 6
-9 23 -19 36 -11 14 -54 72 -97 130 -42 58 -89 119 -103 136 -14 17 -33 40
-41 50 -98 125 -173 207 -350 384 -160 160 -177 175 -295 274 -38 33 -72 62
-75 66 -3 3 -21 17 -40 30 -19 13 -37 27 -40 30 -11 12 -140 110 -145 110 -3
0 -11 5 -18 10 -48 40 -66 54 -99 72 -21 12 -38 25 -38 30 0 4 -4 8 -10 8 -9
0 -72 39 -97 60 -7 5 -15 10 -18 10 -4 0 -25 12 -48 28 -55 35 -73 46 -127 75
-25 14 -70 39 -100 56 -62 35 -200 103 -305 150 -38 18 -83 38 -100 46 -16 7
-33 11 -37 9 -4 -3 -8 0 -8 5 0 6 -4 11 -9 11 -5 0 -26 8 -47 17 -22 9 -43 18
-49 19 -5 2 -41 15 -80 29 -182 67 -427 141 -564 171 -36 8 -97 22 -136 30
-38 9 -79 17 -90 18 -11 2 -33 6 -50 9 -28 6 -92 16 -142 22 -13 2 -42 6 -65
10 -24 4 -61 9 -83 11 -22 1 -40 3 -40 4 0 1 -22 3 -50 6 -27 2 -79 6 -115 9
-36 3 -110 7 -166 9 -55 1 -106 6 -112 10 -7 4 -12 3 -12 -2 0 -10 -36 -9 -46
1 -4 3 -16 1 -28 -5 -11 -6 -21 -11 -21 -11 0 0 -10 5 -22 12 -13 6 -23 8 -23
3 0 -10 -53 -10 -61 1 -3 4 -8 4 -12 1z m267 -1268 c276 -276 338 -348 353
-411 9 -37 10 -155 2 -155 -5 0 -8 -3 -7 -7 4 -15 -14 -73 -22 -73 -5 0 -12
-9 -15 -21 -4 -11 -88 -101 -186 -200 -99 -100 -184 -192 -190 -206 -13 -34
-11 -97 4 -130 6 -15 39 -55 73 -88 71 -70 97 -114 96 -166 -1 -55 -23 -90
-121 -188 -106 -107 -129 -123 -180 -126 -21 -1 -43 -5 -49 -9 -6 -3 -13 -2
-16 3 -3 5 -21 6 -38 2 -18 -4 -45 -4 -60 0 -16 4 -30 3 -34 -2 -3 -5 -9 -7
-14 -4 -22 13 -90 -32 -178 -118 -52 -50 -100 -98 -106 -105 -6 -7 -19 -21
-28 -30 -9 -10 -21 -37 -27 -61 -11 -53 -5 -71 78 -239 33 -67 61 -124 61
-127 1 -2 16 -32 35 -66 19 -33 35 -63 35 -66 0 -2 29 -63 65 -134 67 -133 75
-170 54 -226 -22 -60 -72 -94 -142 -99 -21 -1 -41 -5 -44 -8 -3 -2 -16 -1 -29
4 -16 6 -24 6 -24 -1 0 -6 -5 -7 -12 -3 -6 4 -21 8 -32 9 -26 2 -76 25 -96 45
-42 40 -151 133 -171 148 -13 9 -26 19 -29 24 -12 16 -101 48 -139 51 -23 1
-41 7 -41 12 0 7 -3 7 -8 0 -4 -5 -21 -11 -39 -12 -36 -2 -690 -218 -710 -235
-7 -6 -13 -7 -13 -2 0 5 -22 -15 -50 -44 -27 -29 -49 -56 -48 -60 1 -4 -4 -19
-10 -34 -14 -35 -9 -123 10 -169 19 -43 82 -107 115 -115 13 -4 23 -10 23 -15
0 -5 5 -9 12 -9 9 0 193 -87 290 -137 15 -7 29 -13 30 -13 2 1 10 -1 18 -4 35
-12 106 -29 113 -28 4 1 7 -2 7 -7 0 -5 16 -8 35 -7 19 1 36 -2 37 -6 3 -7 97
-20 158 -23 19 0 41 -4 48 -8 6 -5 12 -4 12 2 0 6 6 8 13 6 6 -2 26 -6 42 -9
17 -2 42 -9 57 -14 34 -14 161 -139 223 -222 27 -36 53 -66 57 -68 5 -2 8 -10
8 -18 0 -8 5 -14 10 -14 6 0 10 -7 10 -15 0 -8 4 -15 9 -15 5 0 20 -17 32 -37
54 -87 179 -215 223 -229 20 -6 36 -7 36 -2 0 5 9 4 20 -2 13 -7 20 -7 20 -1
0 7 9 7 25 1 14 -5 25 -6 25 -2 0 9 42 8 57 -1 7 -4 14 -3 18 3 4 6 12 7 24 1
10 -6 23 -6 31 -1 8 5 19 6 25 2 14 -9 37 -9 58 1 10 5 17 4 17 -3 0 -8 6 -8
20 0 14 8 20 8 20 0 0 -8 6 -8 20 0 14 8 20 8 20 0 0 -8 6 -8 20 0 14 8 20 8
20 0 0 -8 6 -8 20 0 14 8 20 8 20 0 0 -8 6 -8 20 0 14 8 20 8 20 0 0 -8 6 -8
20 0 14 8 20 8 20 0 0 -8 6 -8 20 0 14 8 20 8 20 0 0 -8 6 -8 20 0 14 8 20 8
20 0 0 -8 6 -8 20 0 14 8 20 8 20 0 0 -8 6 -8 20 0 14 8 20 8 20 0 0 -8 6 -8
20 0 14 8 20 8 20 0 0 -8 6 -8 20 0 14 8 20 8 20 0 0 -8 6 -8 20 0 14 8 20 8
20 0 0 -8 6 -8 20 0 14 8 20 8 20 0 0 -8 6 -8 20 0 14 8 26 8 40 0 14 -8 20
-8 20 0 0 8 6 8 20 0 13 -7 20 -7 20 -1 0 7 8 7 23 2 12 -5 31 -5 42 -1 11 4
28 3 38 -2 11 -5 17 -5 17 1 0 7 9 7 23 2 12 -5 32 -5 45 0 14 5 22 5 22 -2 0
-6 7 -6 19 1 14 7 22 7 26 0 5 -8 11 -8 19 -1 7 6 16 8 19 4 4 -3 33 -7 64 -9
99 -5 196 -38 290 -101 49 -32 356 -329 421 -407 35 -41 91 -142 97 -174 2 -9
4 -17 5 -17 2 0 8 -24 20 -78 14 -71 4 -249 -20 -342 -18 -70 -95 -248 -121
-279 -5 -6 -23 -29 -40 -51 -16 -22 -106 -117 -199 -212 -94 -94 -170 -179
-170 -187 0 -9 -4 -16 -9 -16 -16 0 -73 -169 -95 -278 -1 -9 -6 -24 -9 -32 -3
-8 -15 -46 -27 -85 -11 -38 -36 -110 -55 -160 -18 -49 -47 -128 -65 -175 -17
-47 -35 -94 -40 -105 -5 -11 -23 -58 -39 -105 -17 -47 -49 -134 -71 -195 -23
-60 -48 -128 -55 -151 -40 -112 -38 -110 -112 -125 -37 -7 -70 -14 -73 -14 -3
-1 -30 -5 -60 -9 -30 -5 -64 -10 -75 -12 -11 -2 -40 -7 -65 -10 -25 -3 -56 -7
-70 -10 -49 -8 -207 -18 -292 -18 -49 -1 -88 -5 -88 -9 0 -4 -8 -4 -17 1 -10
5 -23 7 -30 5 -9 -3 -12 35 -13 154 0 87 -1 218 -2 291 -2 72 -1 132 3 132 14
0 -6 157 -33 260 -11 41 -20 81 -21 88 0 6 -3 12 -7 12 -4 0 -12 19 -19 43
-16 54 -131 287 -143 287 -4 0 -8 5 -8 11 0 12 -60 103 -72 107 -4 2 -8 8 -8
13 0 9 -21 37 -52 71 -10 10 -18 20 -18 22 0 3 -25 29 -55 60 -30 30 -55 57
-55 61 0 3 -9 16 -20 28 -68 73 -121 225 -126 362 -2 55 -4 102 -5 105 -1 3
-1 8 0 12 1 7 1 107 0 138 0 8 0 35 0 60 0 25 0 52 0 60 0 8 0 35 0 60 0 25 0
52 0 60 -1 8 0 35 1 60 3 109 -10 242 -30 294 -5 13 -6 27 -3 30 4 3 1 6 -5 6
-7 0 -11 3 -10 8 3 10 -49 111 -76 147 -25 33 -92 101 -122 125 -25 20 -121
79 -148 91 -12 5 -35 18 -52 28 -17 10 -62 35 -100 56 -38 20 -82 45 -99 55
-16 10 -37 19 -47 19 -9 1 -18 5 -20 10 -1 4 -37 26 -78 48 -41 22 -104 56
-140 75 -152 83 -320 167 -320 160 0 -4 -5 1 -11 11 -6 9 -14 15 -20 12 -5 -4
-9 -1 -9 5 0 6 -4 8 -10 5 -5 -3 -10 -1 -10 5 0 6 -4 9 -9 5 -5 -3 -12 -1 -16
4 -3 6 -27 20 -53 33 -26 12 -73 39 -104 60 -31 21 -59 38 -62 38 -5 0 -96 60
-106 70 -3 3 -27 21 -55 39 -27 19 -52 37 -55 41 -3 3 -45 39 -94 80 -102 84
-227 207 -302 295 -66 78 -164 211 -164 224 0 5 -4 11 -8 13 -5 2 -46 59 -92
128 -46 69 -87 127 -92 128 -4 2 -8 7 -8 12 0 7 -79 129 -107 165 -4 6 -86
127 -182 270 -96 143 -178 263 -183 266 -15 10 -14 12 10 46 13 18 21 37 18
42 -4 5 -3 11 1 13 5 1 30 46 56 98 27 52 62 118 78 145 16 28 33 59 38 70 5
12 16 27 25 34 9 7 16 18 16 24 0 5 26 48 58 95 31 47 62 92 67 101 6 9 19 28
30 42 11 14 27 36 35 49 8 12 20 28 25 34 6 6 26 31 45 56 19 25 38 50 43 55
4 6 17 22 30 36 12 14 42 50 67 79 50 58 264 275 326 330 34 30 109 94 179
152 11 9 56 44 100 77 44 33 85 65 92 71 7 5 16 10 21 10 5 0 17 9 27 20 10
11 24 20 32 20 7 0 13 5 13 10 0 6 7 10 15 10 8 0 15 5 15 10 0 6 6 10 14 10
8 0 16 4 18 8 4 12 199 125 338 198 62 32 206 98 219 100 8 2 132 -56 275
-127 278 -139 323 -153 414 -135 47 9 112 37 112 47 0 5 3 8 8 7 14 -5 72 56
98 101 28 49 55 166 45 193 -3 9 -4 57 -1 105 4 79 7 88 25 90 11 2 31 4 45 7
52 8 107 15 175 22 39 3 71 7 72 8 1 0 40 2 87 4 l85 3 295 -295z m3464 -1990
c0 -5 4 -12 9 -15 5 -3 17 -24 25 -46 9 -22 23 -56 31 -75 8 -19 16 -39 17
-45 1 -5 5 -14 10 -20 6 -8 36 -87 108 -285 3 -8 6 -20 8 -27 1 -7 12 -45 25
-85 13 -40 22 -76 21 -80 -1 -4 3 -20 9 -35 6 -15 13 -39 16 -53 6 -28 7 -34
17 -70 3 -14 8 -41 10 -60 3 -19 5 -35 6 -35 2 0 9 -28 15 -65 3 -19 10 -60
15 -90 5 -30 12 -75 15 -100 3 -25 7 -61 10 -80 8 -62 16 -172 21 -290 6 -141
7 -107 -1 -285 -7 -163 -8 -176 -20 -280 -5 -38 -9 -74 -10 -80 -1 -16 -23
-11 -305 59 -271 68 -410 111 -410 127 0 5 -6 9 -13 9 -24 0 -130 115 -182
196 -27 44 -52 81 -55 84 -14 13 -50 70 -50 80 0 5 -4 10 -9 10 -5 0 -14 14
-21 30 -7 17 -16 30 -21 30 -5 0 -9 5 -9 10 0 9 -35 65 -50 80 -3 3 -9 12 -15
21 -5 9 -23 36 -40 60 -44 65 -52 79 -80 136 -25 51 -28 60 -42 133 -10 56 -4
190 10 190 4 0 7 9 7 20 0 24 21 70 32 70 4 0 7 3 6 8 -3 13 13 52 22 52 5 0
12 9 15 20 3 11 12 26 18 32 16 17 87 126 87 133 0 3 11 18 25 33 14 15 28 36
32 47 3 11 13 25 22 32 9 7 12 13 6 13 -7 0 -7 3 0 8 20 14 64 80 58 86 -4 3
-2 6 4 6 5 0 18 16 29 35 10 19 22 35 26 35 5 0 8 6 8 13 0 7 8 22 18 33 9 10
29 38 44 60 48 74 125 131 288 213 l154 79 17 -37 c8 -20 16 -40 17 -45z"/>
</g>
</svg>
